<svg width="1920" height="38" viewBox="0 0 1920 38" fill="none" xmlns="http://www.w3.org/2000/svg">
<path d="M584.734 1348.03L2646.03 -713.267M618.675 1381.97L2679.97 -679.326M601.705 1365L2663 -696.296M593.22 1356.51L2654.51 -704.781M627.161 1390.45L2688.45 -670.84M610.19 1373.48L2671.48 -687.811M587.563 1350.86L2648.86 -710.438M621.504 1384.8L2682.8 -676.497M604.533 1367.83L2665.83 -693.468M596.048 1359.34L2657.34 -701.953M629.989 1393.28L2691.28 -668.012M613.019 1376.31L2674.31 -684.982M590.391 1353.68L2651.69 -707.61M624.332 1387.63L2685.63 -673.669M607.362 1370.65L2668.66 -690.639M598.876 1362.17L2660.17 -699.125M632.818 1396.11L2694.11 -665.183M615.847 1379.14L2677.14 -682.154M491.396 1254.69L2552.69 -806.605M525.337 1288.63L2586.63 -772.664M508.367 1271.66L2569.66 -789.634M542.308 1305.6L2603.6 -755.693M562.107 1325.4L2623.4 -735.894M499.882 1263.17L2561.18 -798.12M533.823 1297.12L2595.12 -764.178M516.852 1280.14L2578.15 -781.149M570.592 1333.89L2631.89 -727.409M494.225 1257.52L2555.52 -803.776M528.166 1291.46L2589.46 -769.835M511.195 1274.49L2572.49 -786.806M545.136 1308.43L2606.43 -752.865M564.935 1328.23L2626.23 -733.066M502.71 1266L2564 -795.291M536.651 1299.94L2597.94 -761.35M519.68 1282.97L2580.97 -778.321M553.622 1316.91L2614.92 -744.379M573.421 1336.71L2634.71 -724.58M579.077 1342.37L2640.37 -718.924M497.053 1260.35L2558.35 -800.948M530.994 1294.29L2592.29 -767.007M514.024 1277.32L2575.32 -783.977M547.965 1311.26L2609.26 -750.036M567.764 1331.06L2629.06 -730.237M505.538 1268.83L2566.83 -792.463M539.479 1302.77L2600.77 -758.522M559.278 1322.57L2620.57 -738.723M522.509 1285.8L2583.8 -775.492M556.45 1319.74L2617.74 -741.551M576.249 1339.54L2637.54 -721.752M581.906 1345.2L2643.2 -716.095M550.793 1314.09L2612.09 -747.208M398.058 1161.35L2459.35 -899.943M431.999 1195.29L2493.29 -866.002M415.029 1178.32L2476.32 -882.972M448.97 1212.26L2510.26 -849.031M468.769 1232.06L2530.06 -829.232M406.543 1169.84L2467.84 -891.458M440.485 1203.78L2501.78 -857.516M423.514 1186.81L2484.81 -874.487M477.254 1240.55L2538.55 -820.747M400.887 1164.18L2462.18 -897.114M434.828 1198.12L2496.12 -863.173M417.857 1181.15L2479.15 -880.144M451.798 1215.09L2513.09 -846.203M471.597 1234.89L2532.89 -826.404M409.372 1172.66L2470.67 -888.629M443.313 1206.61L2504.61 -854.688M426.342 1189.64L2487.64 -871.659M460.284 1223.58L2521.58 -837.717M480.083 1243.38L2541.38 -817.918M485.739 1249.03L2547.03 -812.262M403.715 1167.01L2465.01 -894.286M437.656 1200.95L2498.95 -860.345M420.686 1183.98L2481.98 -877.315M454.627 1217.92L2515.92 -843.374M474.426 1237.72L2535.72 -823.575M412.2 1175.49L2473.49 -885.801M446.141 1209.43L2507.44 -851.86M465.94 1229.23L2527.23 -832.061M429.171 1192.46L2490.46 -868.83M463.112 1226.4L2524.41 -834.889M482.911 1246.2L2544.2 -815.09M488.568 1251.86L2549.86 -809.433M457.455 1220.75L2518.75 -840.546M304.72 1068.01L2366.01 -993.281M338.661 1101.95L2399.96 -959.34M321.691 1084.98L2382.98 -976.31M355.632 1118.92L2416.93 -942.369M375.431 1138.72L2436.72 -922.57M313.205 1076.5L2374.5 -984.796M347.146 1110.44L2408.44 -950.855M330.176 1093.47L2391.47 -967.825M383.916 1147.21L2445.21 -914.085M307.548 1070.84L2368.84 -990.453M341.49 1104.78L2402.78 -956.511M324.519 1087.81L2385.81 -973.482M358.46 1121.75L2419.75 -939.541M378.259 1141.55L2439.55 -919.742M316.034 1079.33L2377.33 -981.967M349.975 1113.27L2411.27 -948.026M333.004 1096.3L2394.3 -964.997M366.945 1130.24L2428.24 -931.056M386.744 1150.04L2448.04 -911.257M392.401 1155.69L2453.7 -905.6M310.377 1073.67L2371.67 -987.624M344.318 1107.61L2405.61 -953.683M327.347 1090.64L2388.64 -970.654M361.289 1124.58L2422.58 -936.712M381.088 1144.38L2442.38 -916.913M318.862 1082.16L2380.16 -979.139M352.803 1116.1L2414.1 -945.198M372.602 1135.9L2433.9 -925.399M335.833 1099.13L2397.13 -962.168M369.774 1133.07L2431.07 -928.227M389.573 1152.87L2450.87 -908.428M395.23 1158.52L2456.52 -902.771M364.117 1127.41L2425.41 -933.884M211.381 974.675L2272.68 -1086.62M245.323 1008.62L2306.62 -1052.68M228.352 991.646L2289.65 -1069.65M262.293 1025.59L2323.59 -1035.71M282.092 1045.39L2343.39 -1015.91M219.867 983.161L2281.16 -1078.13M253.808 1017.1L2315.1 -1044.19M236.837 1000.13L2298.13 -1061.16M290.577 1053.87L2351.87 -1007.42M214.21 977.504L2275.5 -1083.79M248.151 1011.44L2309.45 -1049.85M231.18 994.474L2292.47 -1066.82M265.122 1028.42L2326.42 -1032.88M284.921 1048.21L2346.21 -1013.08M222.695 985.989L2283.99 -1075.31M256.636 1019.93L2317.93 -1041.36M239.666 1002.96L2300.96 -1058.33M273.607 1036.9L2334.9 -1024.39M293.406 1056.7L2354.7 -1004.59M299.063 1062.36L2360.36 -998.938M217.038 980.332L2278.33 -1080.96M250.979 1014.27L2312.27 -1047.02M234.009 997.303L2295.3 -1063.99M267.95 1031.24L2329.24 -1030.05M287.749 1051.04L2349.04 -1010.25M225.524 988.818L2286.82 -1072.48M259.465 1022.76L2320.76 -1038.54M279.264 1042.56L2340.56 -1018.74M242.494 1005.79L2303.79 -1055.51M276.435 1039.73L2337.73 -1021.57M296.234 1059.53L2357.53 -1001.77M301.891 1065.19L2363.19 -996.109M270.778 1034.07L2332.07 -1027.22M118.044 881.336L2179.34 -1179.96M151.985 915.277L2213.28 -1146.02M135.015 898.307L2196.31 -1162.99M168.956 932.248L2230.25 -1129.05M188.755 952.047L2250.05 -1109.25M126.53 889.822L2187.82 -1171.47M160.471 923.763L2221.76 -1137.53M143.5 906.792L2204.79 -1154.5M197.24 960.532L2258.53 -1100.76M120.873 884.165L2182.17 -1177.13M154.814 918.106L2216.11 -1143.19M137.843 901.135L2199.14 -1160.16M171.784 935.076L2233.08 -1126.22M191.583 954.875L2252.88 -1106.42M129.358 892.65L2190.65 -1168.64M163.299 926.591L2224.59 -1134.7M146.329 909.621L2207.62 -1151.67M180.27 943.562L2241.56 -1117.73M200.069 963.361L2261.36 -1097.93M205.726 969.017L2267.02 -1092.28M123.701 886.993L2184.99 -1174.3M157.642 920.934L2218.94 -1140.36M140.672 903.964L2201.97 -1157.33M174.613 937.905L2235.91 -1123.39M194.412 957.704L2255.71 -1103.59M132.186 895.478L2193.48 -1165.82M166.128 929.42L2227.42 -1131.87M185.927 949.218L2247.22 -1112.07M149.157 912.449L2210.45 -1148.84M183.098 946.39L2244.39 -1114.9M202.897 966.189L2264.19 -1095.1M208.554 971.846L2269.85 -1089.45M177.441 940.733L2238.73 -1120.56M24.7063 787.998L2086 -1273.3M58.6474 821.939L2119.94 -1239.35M41.6768 804.969L2102.97 -1256.32M75.618 838.91L2136.91 -1222.38M95.4169 858.709L2156.71 -1202.58M33.1916 796.483L2094.48 -1264.81M67.1327 830.425L2128.43 -1230.87M50.1621 813.454L2111.46 -1247.84M103.902 867.194L2165.2 -1194.1M27.5347 790.827L2088.83 -1270.47M61.4758 824.768L2122.77 -1236.53M44.5053 807.797L2105.8 -1253.5M78.4464 841.738L2139.74 -1219.56M98.2454 861.537L2159.54 -1199.76M36.02 799.312L2097.31 -1261.98M69.9611 833.253L2131.25 -1228.04M52.9905 816.282L2114.28 -1245.01M86.9317 850.224L2148.23 -1211.07M106.731 870.023L2168.02 -1191.27M112.388 875.679L2173.68 -1185.61M30.3631 793.655L2091.66 -1267.64M64.3043 827.596L2125.6 -1233.7M47.3337 810.626L2108.63 -1250.67M81.2748 844.567L2142.57 -1216.73M101.074 864.366L2162.37 -1196.93M38.8484 802.14L2100.14 -1259.15M72.7895 836.081L2134.08 -1225.21M92.5885 855.88L2153.88 -1205.41M55.819 819.111L2117.11 -1242.18M89.7601 853.052L2151.05 -1208.24M109.559 872.851L2170.85 -1188.44M115.216 878.508L2176.51 -1182.79M84.1032 847.395L2145.4 -1213.9M-68.6318 694.66L1992.66 -1366.63M-34.6907 728.601L2026.6 -1332.69M-51.6613 711.631L2009.63 -1349.66M-17.7201 745.572L2043.57 -1315.72M2.07885 765.371L2063.37 -1295.92M-60.1465 703.145L2001.15 -1358.15M-26.2054 737.086L2035.09 -1324.21M-43.176 720.116L2018.12 -1341.18M10.5641 773.856L2071.86 -1287.44M-65.8034 697.488L1995.49 -1363.8M-31.8623 731.43L2029.43 -1329.86M-48.8328 714.459L2012.46 -1346.83M-14.8917 748.4L2046.4 -1312.89M4.90728 768.199L2066.2 -1293.09M-57.3181 705.974L2003.98 -1355.32M-23.377 739.915L2037.92 -1321.38M-40.3476 722.944L2020.95 -1338.35M-6.40643 756.885L2054.89 -1304.41M13.3926 776.684L2074.69 -1284.61M19.0494 782.341L2080.34 -1278.95M-62.975 700.317L1998.32 -1360.98M-29.0338 734.258L2032.26 -1327.04M-46.0044 717.287L2015.29 -1344.01M-12.0633 751.229L2049.23 -1310.06M7.73571 771.028L2069.03 -1290.27M-54.4897 708.802L2006.8 -1352.49M-20.5486 742.743L2040.74 -1318.55M-0.749573 762.542L2060.54 -1298.75M-37.5191 725.773L2023.77 -1335.52M-3.578 759.714L2057.72 -1301.58M16.221 779.513L2077.51 -1281.78M21.8778 785.17L2083.17 -1276.12M-9.23485 754.057L2052.06 -1307.24M-161.97 601.322L1899.32 -1459.97M-128.029 635.263L1933.26 -1426.03M-144.999 618.293L1916.29 -1443M-111.058 652.234L1950.24 -1409.06M-91.2592 672.033L1970.03 -1389.26M-153.485 609.807L1907.81 -1451.49M-119.544 643.748L1941.75 -1417.55M-136.514 626.778L1924.78 -1434.52M-82.774 680.518L1978.52 -1380.78M-159.141 604.15L1902.15 -1457.14M-125.2 638.092L1936.09 -1423.2M-142.171 621.121L1919.12 -1440.17M-108.23 655.062L1953.06 -1406.23M-88.4308 674.861L1972.86 -1386.43M-150.656 612.636L1910.64 -1448.66M-116.715 646.577L1944.58 -1414.72M-133.686 629.606L1927.61 -1431.69M-99.7445 663.547L1961.55 -1397.75M-79.9455 683.346L1981.35 -1377.95M-74.2887 689.003L1987 -1372.29M-156.313 606.979L1904.98 -1454.31M-122.372 640.92L1938.92 -1420.37M-139.342 623.949L1921.95 -1437.34M-105.401 657.891L1955.89 -1403.4M-85.6024 677.689L1975.69 -1383.6M-147.828 615.464L1913.47 -1445.83M-113.887 649.405L1947.41 -1411.89M-94.0877 669.204L1967.21 -1392.09M-130.857 632.435L1930.44 -1428.86M-96.9161 666.376L1964.38 -1394.92M-77.1171 686.175L1984.18 -1375.12M-71.4602 691.832L1989.83 -1369.46M-102.573 660.719L1958.72 -1400.57M-255.309 507.984L1805.99 -1553.31M-221.367 541.926L1839.93 -1519.37M-238.338 524.955L1822.96 -1536.34M-204.397 558.896L1856.9 -1502.4M-184.598 578.695L1876.7 -1482.6M-246.823 516.47L1814.47 -1544.82M-212.882 550.411L1848.41 -1510.88M-229.853 533.44L1831.44 -1527.85M-176.113 587.18L1885.18 -1474.11M-252.48 510.813L1808.81 -1550.48M-218.539 544.754L1842.75 -1516.54M-235.51 527.783L1825.78 -1533.51M-201.568 561.724L1859.73 -1499.57M-181.769 581.523L1879.52 -1479.77M-243.995 519.298L1817.3 -1542M-210.054 553.239L1851.24 -1508.05M-227.024 536.269L1834.27 -1525.03M-193.083 570.21L1868.21 -1491.08M-173.284 590.009L1888.01 -1471.29M-167.627 595.666L1893.67 -1465.63M-249.652 513.641L1811.64 -1547.65M-215.711 547.582L1845.58 -1513.71M-232.681 530.612L1828.61 -1530.68M-198.74 564.553L1862.55 -1496.74M-178.941 584.352L1882.35 -1476.94M-241.166 522.127L1820.13 -1539.17M-207.225 556.068L1854.07 -1505.23M-187.426 575.867L1873.87 -1485.43M-224.196 539.097L1837.1 -1522.2M-190.255 573.038L1871.04 -1488.26M-170.456 592.837L1890.84 -1468.46M-164.799 598.494L1896.5 -1462.8M-195.912 567.381L1865.38 -1493.91M-348.647 414.646L1712.65 -1646.65M-314.705 448.587L1746.59 -1612.71M-331.676 431.617L1729.62 -1629.68M-297.735 465.558L1763.56 -1595.74M-277.936 485.357L1783.36 -1575.94M-340.161 423.132L1721.13 -1638.16M-306.22 457.073L1755.07 -1604.22M-323.191 440.102L1738.1 -1621.19M-269.451 493.842L1791.84 -1567.45M-345.818 417.475L1715.48 -1643.82M-311.877 451.416L1749.42 -1609.88M-328.848 434.445L1732.45 -1626.85M-294.907 468.386L1766.39 -1592.91M-275.108 488.185L1786.19 -1573.11M-337.333 425.96L1723.96 -1635.33M-303.392 459.901L1757.9 -1601.39M-320.362 442.931L1740.93 -1618.36M-286.421 476.872L1774.87 -1584.42M-266.622 496.671L1794.67 -1564.62M-260.965 502.328L1800.33 -1558.97M-342.99 420.303L1718.3 -1640.99M-309.049 454.244L1752.25 -1607.05M-326.019 437.274L1735.27 -1624.02M-292.078 471.215L1769.22 -1590.08M-272.279 491.014L1789.01 -1570.28M-334.504 428.788L1726.79 -1632.51M-300.563 462.73L1760.73 -1598.56M-280.764 482.529L1780.53 -1578.77M-317.534 445.759L1743.76 -1615.53M-283.593 479.7L1777.7 -1581.59M-263.794 499.499L1797.5 -1561.79M-258.137 505.156L1803.16 -1556.14M-289.25 474.043L1772.04 -1587.25M-441.985 321.308L1619.31 -1739.99M-408.044 355.249L1653.25 -1706.04M-425.014 338.279L1636.28 -1723.02M-391.073 372.22L1670.22 -1689.07M-371.274 392.019L1690.02 -1669.28M-433.499 329.793L1627.79 -1731.5M-399.558 363.735L1661.74 -1697.56M-416.529 346.764L1644.77 -1714.53M-362.789 400.504L1698.51 -1660.79M-439.156 324.137L1622.14 -1737.16M-405.215 358.078L1656.08 -1703.22M-422.186 341.107L1639.11 -1720.19M-388.245 375.048L1673.05 -1686.25M-368.446 394.847L1692.85 -1666.45M-430.671 332.622L1630.62 -1728.67M-396.73 366.563L1664.56 -1694.73M-413.7 349.592L1647.59 -1711.7M-379.759 383.534L1681.53 -1677.76M-359.96 403.333L1701.33 -1657.96M-354.303 408.989L1706.99 -1652.3M-436.328 326.965L1624.97 -1734.33M-402.387 360.906L1658.91 -1700.39M-419.357 343.936L1641.94 -1717.36M-385.416 377.877L1675.88 -1683.42M-365.617 397.676L1695.68 -1663.62M-427.843 335.45L1633.45 -1725.84M-393.901 369.391L1667.39 -1691.9M-374.102 389.19L1687.19 -1672.1M-410.872 352.421L1650.42 -1708.87M-376.931 386.362L1684.36 -1674.93M-357.132 406.161L1704.16 -1655.13M-351.475 411.818L1709.82 -1649.48M-382.588 380.705L1678.71 -1680.59M-535.323 227.97L1525.97 -1833.32M-501.382 261.911L1559.91 -1799.38M-518.352 244.941L1542.94 -1816.35M-484.411 278.882L1576.88 -1782.41M-464.612 298.681L1596.68 -1762.61M-526.838 236.455L1534.46 -1824.84M-492.896 270.397L1568.4 -1790.9M-509.867 253.426L1551.43 -1807.87M-456.127 307.166L1605.17 -1754.13M-532.494 230.799L1528.8 -1830.5M-498.553 264.74L1562.74 -1796.55M-515.524 247.769L1545.77 -1813.52M-481.583 281.71L1579.71 -1779.58M-461.784 301.509L1599.51 -1759.78M-524.009 239.284L1537.28 -1822.01M-490.068 273.225L1571.23 -1788.07M-507.039 256.254L1554.26 -1805.04M-473.097 290.195L1588.2 -1771.1M-453.298 309.994L1608 -1751.3M-447.642 315.651L1613.65 -1745.64M-529.666 233.627L1531.63 -1827.67M-495.725 267.568L1565.57 -1793.73M-512.695 250.598L1548.6 -1810.7M-478.754 284.539L1582.54 -1776.76M-458.955 304.338L1602.34 -1756.96M-521.181 242.112L1540.11 -1819.18M-487.24 276.053L1574.05 -1785.24M-467.441 295.852L1593.85 -1765.44M-504.21 259.083L1557.08 -1802.21M-470.269 293.024L1591.02 -1768.27M-450.47 312.823L1610.82 -1748.47M-444.813 318.48L1616.48 -1742.81M-475.926 287.367L1585.37 -1773.93M-628.661 134.632L1432.63 -1926.66M-594.72 168.573L1466.57 -1892.72M-611.69 151.603L1449.6 -1909.69M-577.749 185.544L1483.54 -1875.75M-557.95 205.343L1503.34 -1855.95M-620.176 143.117L1441.12 -1918.18M-586.234 177.058L1475.06 -1884.24M-603.205 160.088L1458.09 -1901.21M-549.465 213.828L1511.83 -1847.47M-625.832 137.46L1435.46 -1923.83M-591.891 171.402L1469.4 -1889.89M-608.862 154.431L1452.43 -1906.86M-574.921 188.372L1486.37 -1872.92M-555.122 208.171L1506.17 -1853.12M-617.347 145.946L1443.95 -1915.35M-583.406 179.887L1477.89 -1881.41M-600.377 162.916L1460.92 -1898.38M-566.436 196.857L1494.86 -1864.44M-546.637 216.656L1514.66 -1844.64M-540.98 222.313L1520.31 -1838.98M-623.004 140.289L1438.29 -1921.01M-589.063 174.23L1472.23 -1887.06M-606.033 157.259L1455.26 -1904.03M-572.092 191.201L1489.2 -1870.09M-552.293 211L1509 -1850.29M-614.519 148.774L1446.78 -1912.52M-580.578 182.715L1480.72 -1878.58M-560.779 202.514L1500.52 -1858.78M-597.548 165.745L1463.75 -1895.55M-563.607 199.686L1497.69 -1861.61M-543.808 219.485L1517.49 -1841.81M-538.151 225.142L1523.14 -1836.15M-569.264 194.029L1492.03 -1867.26M-722 41.2944L1339.29 -2020M-688.058 75.2356L1373.24 -1986.06M-705.029 58.265L1356.27 -2003.03M-671.088 92.2061L1390.21 -1969.09M-651.289 112.005L1410.01 -1949.29M-713.514 49.7797L1347.78 -2011.51M-679.573 83.7208L1381.72 -1977.57M-696.544 66.7503L1364.75 -1994.54M-642.804 120.49L1418.49 -1940.8M-719.171 44.1229L1342.12 -2017.17M-685.23 78.064L1376.06 -1983.23M-702.201 61.0934L1359.09 -2000.2M-668.259 95.0345L1393.04 -1966.26M-648.46 114.834L1412.83 -1946.46M-710.686 52.6081L1350.61 -2008.69M-676.745 86.5493L1384.55 -1974.75M-693.715 69.5787L1367.58 -1991.72M-659.774 103.52L1401.52 -1957.77M-639.975 123.319L1421.32 -1937.98M-634.318 128.976L1426.98 -1932.32M-716.343 46.9513L1344.95 -2014.34M-682.402 80.8924L1378.89 -1980.4M-699.372 63.9219L1361.92 -1997.37M-665.431 97.863L1395.86 -1963.43M-645.632 117.662L1415.66 -1943.63M-707.857 55.4366L1353.44 -2005.86M-673.916 89.3777L1387.38 -1971.92M-654.117 109.177L1407.18 -1952.12M-690.887 72.4071L1370.41 -1988.89M-656.946 106.348L1404.35 -1954.95M-637.147 126.147L1424.15 -1935.15M-631.49 131.804L1429.8 -1929.49M-662.603 100.691L1398.69 -1960.6" stroke="#DEE1E7" stroke-opacity="0.35" stroke-dasharray="0.15 0.5"/>
</svg>
